<?xml version="1.0" standalone="no"?> <!DOCTYPE svg PUBLIC "-//W3C//DTD SVG 20010904//EN" "http://www.w3.org/TR/2001/REC-SVG-20010904/DTD/svg10.dtd"> <svg version="1.0" xmlns="http://www.w3.org/2000/svg" width="600.000000pt" height="173.000000pt" viewBox="0 0 600.000000 173.000000" preserveAspectRatio="xMidYMid meet"> <g transform="translate(0.000000,173.000000) scale(0.066667,-0.066667)" fill="#120193" stroke="none"> <path d="M1191 2157 c-148 -232 -371 -582 -497 -776 l-228 -353 30 -32 c65 -69 423 -203 470 -175 27 16 403 320 452 366 l46 43 238 -180 c184 -139 246 -178 270 -171 17 6 76 30 133 55 l102 46 -61 62 c-81 82 -86 77 115 97 97 10 185 21 195 24 11 4 -103 177 -285 431 -167 234 -391 551 -498 705 -108 154 -200 281 -205 281 -5 0 -130 -190 -277 -423z m393 -241 c94 -103 368 -535 363 -571 -7 -52 -51 -46 -158 21 -286 181 -390 176 -663 -32 -217 -166 -161 -6 150 422 195 269 205 274 308 160z"/> <path d="M1860 2160 c0 -8 52 -85 115 -171 l114 -157 114 -25 c154 -34 250 -71 338 -131 l74 -50 174 77 c95 42 185 81 200 86 84 31 -184 222 -431 306 -195 66 -698 113 -698 65z"/> <path d="M780 1843 c-836 -441 -1009 -1008 -398 -1304 513 -248 1356 -171 1996 182 l106 58 46 -46 45 -45 78 209 c90 245 91 250 36 239 -23 -5 -122 -20 -221 -33 -99 -14 -197 -28 -216 -32 l-36 -8 39 -41 c57 -58 53 -65 -71 -126 -524 -260 -1478 -220 -1747 72 -145 156 -58 383 213 561 88 57 358 407 314 406 -6 0 -89 -42 -184 -92z"/> <path d="M3698 1910 c-290 -45 -346 -152 -342 -650 5 -641 63 -723 524 -733 427 -8 553 54 580 288 18 154 3 190 -82 190 l-73 0 0 -101 c0 -200 -60 -237 -390 -236 -369 0 -381 17 -387 555 -6 515 -1 525 314 550 351 28 422 -4 441 -196 l11 -107 73 0 73 0 0 64 c-1 170 -58 295 -158 347 -59 31 -450 50 -584 29z"/> <path d="M4532 1222 l4 -697 436 4 436 4 0 73 0 73 -349 -3 -349 -3 0 624 0 623 -91 0 -91 0 4 -698z"/> <path d="M5732 1248 c-135 -369 -249 -683 -253 -698 -7 -24 1 -26 78 -22 l87 5 52 146 52 146 349 0 349 0 51 -146 52 -146 85 -5 c93 -5 99 2 65 69 -11 22 -127 329 -257 682 l-237 641 -114 0 -113 -1 -246 -671z m476 236 c57 -160 122 -338 143 -395 21 -56 39 -109 39 -116 0 -7 -135 -13 -299 -13 l-300 0 39 101 c21 56 85 233 142 394 57 161 107 302 111 313 12 33 14 27 125 -284z"/> <path d="M6784 1361 c10 -815 18 -827 551 -828 540 -1 554 20 555 858 l0 529 -82 0 -82 0 -4 -559 c-6 -708 7 -680 -324 -696 -453 -22 -457 -15 -450 752 l5 503 -88 0 -88 0 7 -559z"/> <path d="M7950 1845 l0 -75 226 0 227 0 -5 -619 -5 -618 80 0 80 0 -2 618 -2 619 225 0 226 0 0 75 0 75 -525 0 -525 0 0 -75z"/> <path d="M2696 830 c-4 -7 -22 -60 -41 -117 -45 -142 -50 -144 -120 -75 l-60 58 -91 -45 -92 -45 371 -277 c203 -152 386 -289 406 -304 l36 -28 0 140 0 141 -196 277 c-225 317 -204 291 -213 275z"/> <path d="M130 505 c-110 -175 -111 -176 -122 -332 -8 -122 -7 -146 10 -133 134 106 455 371 458 379 3 5 -30 22 -72 38 -43 15 -110 49 -151 77 l-73 49 -50 -78z"/> <path d="M8074 346 c-82 -96 -58 -241 41 -241 106 0 143 166 53 237 -27 22 -32 33 -19 46 13 13 12 17 -5 16 -12 -1 -43 -27 -70 -58z m103 -80 c4 -89 -16 -131 -63 -131 -60 0 -79 115 -29 165 37 37 89 18 92 -34z"/> <path d="M3423 325 c-43 -45 -46 -159 -6 -195 30 -27 123 -34 123 -10 0 8 -17 15 -37 15 -98 0 -108 168 -11 177 30 3 48 13 48 26 0 36 -81 27 -117 -13z"/> <path d="M3570 233 l0 -128 60 0 c33 0 60 7 60 15 0 8 -20 15 -45 15 l-45 0 0 113 c0 65 -6 112 -15 112 -9 0 -15 -52 -15 -127z"/> <path d="M3705 262 c0 -145 70 -213 136 -133 26 31 29 218 3 227 -14 5 -19 -18 -19 -84 0 -108 -10 -137 -45 -137 -35 0 -45 29 -45 136 0 49 -7 89 -15 89 -8 0 -15 -43 -15 -98z"/> <path d="M3908 331 c-29 -32 -14 -106 21 -106 7 0 24 -10 37 -23 32 -33 14 -70 -33 -64 -21 3 -41 -4 -45 -15 -4 -15 9 -19 51 -15 88 7 108 73 39 130 -58 48 -62 77 -9 77 24 0 36 7 32 19 -10 31 -63 29 -93 -3z"/> <path d="M4028 345 c-10 -15 -7 -17 26 -21 12 -1 20 -37 23 -110 6 -160 48 -157 48 3 0 62 5 112 11 111 28 -4 49 3 49 17 0 8 -33 15 -74 15 -41 0 -78 -7 -83 -15z"/> <path d="M4197 233 l-4 -128 63 0 c35 0 64 7 64 15 0 8 -20 15 -45 15 -38 0 -45 6 -45 38 0 30 7 37 39 37 47 0 42 35 -6 42 -50 8 -43 60 8 66 60 7 51 34 -14 39 l-55 5 -5 -129z"/> <path d="M4350 233 c0 -76 6 -128 15 -128 8 0 15 24 15 54 0 66 28 63 59 -6 28 -63 53 -62 39 1 -13 56 -13 65 0 117 12 50 -25 89 -84 89 l-44 0 0 -127z m80 78 c33 -24 18 -71 -22 -71 -21 0 -28 11 -28 45 0 49 11 55 50 26z"/> <path d="M4590 240 c-28 -97 -31 -198 -4 -123 23 63 74 78 94 26 13 -34 45 -54 45 -29 0 42 -69 246 -83 246 -10 0 -33 -54 -52 -120z m66 11 c7 -32 4 -41 -15 -41 -16 0 -21 8 -15 24 5 13 9 34 9 47 0 33 9 20 21 -30z"/> <path d="M4750 350 c-16 -16 -11 -147 6 -198 21 -57 106 -69 133 -18 23 43 21 230 -2 222 -12 -4 -19 -39 -19 -98 -1 -95 -20 -133 -59 -118 -18 7 -24 32 -24 106 0 90 -12 127 -35 104z"/> <path d="M4924 342 c4 -11 18 -19 31 -17 21 1 25 -16 25 -109 0 -81 5 -111 19 -111 15 0 20 29 19 109 0 93 3 108 26 108 65 1 25 31 -47 35 -61 4 -78 0 -73 -15z"/> <path d="M5113 331 c-41 -33 -51 -158 -15 -201 26 -31 112 -33 137 -2 88 106 -20 286 -122 203z m114 -70 c14 -59 -18 -126 -60 -126 -66 0 -83 161 -19 184 32 11 68 -15 79 -58z"/> <path d="M5305 350 c-16 -16 -12 -245 4 -245 8 0 17 39 19 86 l5 87 21 -87 c26 -107 50 -109 80 -7 l23 79 3 -68 c2 -37 3 -73 2 -79 -1 -6 9 -11 23 -11 21 0 23 13 15 92 -6 51 -10 108 -10 128 0 70 -40 35 -67 -59 l-27 -93 -25 89 c-24 85 -43 111 -66 88z"/> <path d="M5563 331 c-41 -33 -51 -158 -15 -201 31 -37 115 -32 144 8 79 114 -28 275 -129 193z m114 -70 c13 -53 -18 -126 -53 -126 -43 0 -79 65 -67 119 19 85 99 89 120 7z"/> <path d="M5715 338 c0 -13 13 -23 30 -23 27 0 30 -10 30 -105 0 -74 6 -105 19 -105 13 0 17 28 14 105 -5 98 -3 105 26 105 18 0 31 10 31 23 0 17 -18 22 -75 22 -57 0 -75 -5 -75 -22z"/> <path d="M5880 233 c0 -76 6 -128 15 -128 8 0 15 24 15 53 0 28 5 52 11 52 25 -1 45 -24 54 -64 15 -60 46 -53 34 8 -12 63 -12 70 0 122 12 52 -21 84 -87 84 l-42 0 0 -127z m102 40 c-8 -43 -72 -42 -72 1 0 20 4 40 9 45 17 17 68 -20 63 -46z"/> <path d="M6045 233 c0 -76 6 -128 15 -128 9 0 15 52 15 128 0 75 -6 127 -15 127 -9 0 -15 -52 -15 -127z"/> <path d="M6120 338 c0 -16 15 -23 46 -23 l45 0 -53 -95 c-67 -120 -68 -115 30 -115 52 0 80 6 75 15 -6 8 -33 15 -61 15 l-50 0 51 91 c69 122 68 134 -15 134 -50 0 -68 -6 -68 -22z"/> <path d="M6345 233 l0 -128 58 0 c78 0 112 39 112 130 0 83 -40 125 -119 125 l-51 0 0 -127z m102 74 c61 -43 35 -172 -35 -172 -35 0 -37 4 -37 88 0 113 11 126 72 84z"/> <path d="M6550 350 c-5 -5 -10 -63 -10 -127 l0 -118 68 0 c37 0 67 7 67 15 0 8 -20 15 -45 15 -38 0 -45 6 -45 38 0 30 7 37 39 37 47 0 42 35 -6 42 -49 7 -44 63 5 63 23 0 37 9 37 23 0 23 -89 33 -110 12z"/> <path d="M6765 233 c0 -76 6 -128 15 -128 8 0 15 39 16 86 l0 87 45 -87 c63 -122 82 -113 80 37 -2 146 -36 190 -37 47 l0 -87 -45 86 c-60 117 -74 109 -74 -41z"/> <path d="M6960 250 c0 -65 7 -116 18 -127 29 -29 99 -22 116 11 20 37 21 226 1 226 -8 0 -15 -40 -15 -89 0 -107 -10 -136 -45 -136 -35 0 -45 29 -45 136 0 49 -7 89 -15 89 -9 0 -15 -46 -15 -110z"/> <path d="M7155 233 l0 -128 60 0 c33 0 60 7 60 15 0 8 -20 15 -45 15 -38 0 -45 6 -45 38 0 30 8 37 38 37 23 0 37 9 37 23 0 14 -14 22 -37 22 -56 0 -53 56 3 63 61 7 51 34 -15 39 l-56 5 0 -129z"/> <path d="M7295 315 c22 -110 59 -210 76 -210 22 0 95 234 79 250 -16 16 -25 -1 -53 -102 -25 -89 -28 -92 -38 -50 -30 126 -42 157 -56 157 -11 0 -13 -17 -8 -45z"/> <path d="M7498 331 c-41 -33 -51 -158 -15 -201 31 -37 115 -32 144 8 81 116 -26 277 -129 193z m116 -69 c5 -21 1 -58 -9 -82 -35 -83 -112 -43 -109 57 2 96 95 116 118 25z"/> <path d="M7740 234 l0 -129 60 0 c33 0 60 7 60 15 0 8 -17 15 -37 15 -35 0 -37 5 -41 108 -7 164 -42 157 -42 -9z"/> <path d="M7885 350 c-6 -5 -10 -63 -10 -127 l0 -118 68 0 c37 0 67 7 67 15 0 8 -20 15 -45 15 -38 0 -45 6 -45 38 0 30 7 37 39 37 47 0 42 35 -6 42 -49 7 -44 63 5 63 23 0 37 9 37 23 0 23 -89 33 -110 12z"/> <path d="M8235 233 c0 -104 4 -128 23 -128 17 0 22 19 22 85 l0 85 41 -80 c63 -123 79 -116 79 36 0 144 -26 178 -33 43 l-4 -86 -43 86 c-62 126 -85 115 -85 -41z"/> <path d="M8535 296 c-9 -35 -23 -87 -31 -116 -22 -85 -5 -110 28 -39 19 42 71 39 82 -6 8 -28 116 -41 116 -14 0 22 -31 32 -51 15 -16 -13 -27 8 -54 104 -39 136 -65 153 -90 56z m59 -75 c1 -6 -10 -11 -23 -11 -16 0 -21 8 -15 24 5 13 9 31 10 41 1 17 26 -31 28 -54z"/> <path d="M8787 344 c-96 -56 -52 -239 58 -239 64 0 65 27 2 33 -59 5 -87 62 -63 128 11 32 25 43 63 46 61 6 67 48 7 48 -23 -1 -53 -8 -67 -16z"/> <path d="M8918 136 c-11 -18 17 -36 37 -23 17 10 6 37 -15 37 -7 0 -17 -6 -22 -14z"/> </g> </svg>